# xmcd
#
# Track frame offsets: 
#        150
#        7123
#        20174
#        31233
#        44202
#        57605
#        69183
#        84140
#        97878
#        114311
#        127772
#        152815
#        172616
#        189662
#        213225
#        236139
#        248884
#
# Disc length: 3617 seconds
#
# Revision: 4
# Processed by: cddbd v1.5.2PL0 Copyright (c) Steve Scherf et al.
# Submitted via: ExactAudioCopyFreeDBPlugin 1.0
#
DISCID=da0e1f11
DTITLE=The Highwaymen - The Highwaymen - Live American Outlaws [CD1
DTITLE=)
DYEAR=2016
DGENRE=Outlaw Country
TTITLE0=Mystery Train
TTITLE1=Highwayman
TTITLE2=Mammas Don't Let Your Babies Grow Up To Be Cowboys
TTITLE3=Good Hearted Woman
TTITLE4=TroubleMan
TTITLE5=Amanda
TTITLE6=There Ain't No Good Chain Gang
TTITLE7=Ring Of Fire
TTITLE8=Folsom Prison Blues
TTITLE9=Blue Eyes Crying In The Rain
TTITLE10=Sunday Morning Coming Down
TTITLE11=Help Me Make It Through The Night
TTITLE12=The Best Of All Possible Worlds
TTITLE13=Loving Her Was Easier (Than Anything I'll Ever Do Again)
TTITLE14=City Of New Orleans
TTITLE15=Always On My Mind
TTITLE16=Me And Bobby McGee
EXTD=
EXTT0=
EXTT1=
EXTT2=
EXTT3=
EXTT4=
EXTT5=
EXTT6=
EXTT7=
EXTT8=
EXTT9=
EXTT10=
EXTT11=
EXTT12=
EXTT13=
EXTT14=
EXTT15=
EXTT16=
PLAYORDER=
